<?xml version="1.0" encoding="utf-8"?>
<!-- Generator: Adobe Illustrator 25.0.0, SVG Export Plug-In . SVG Version: 6.00 Build 0)  -->
<svg version="1.1" id="icon" xmlns="http://www.w3.org/2000/svg" xmlns:xlink="http://www.w3.org/1999/xlink" x="0px" y="0px"
	 viewBox="0 0 122.2 26.1" style="enable-background:new 0 0 122.2 26.1;" xml:space="preserve">
<style type="text/css">
	.st0{fill:#EB601A;}
	.st1{fill:#525BB2;}
	.st2{fill:#FFFFFF;}
	.st3{fill:#231815;}
	.st4{fill:#F7B521;}
	.st5{fill:#FCE1B1;}
	.st6{fill:#F7D084;}
	.st7{fill:#E0E0E8;}
	.st8{fill:#E2E2E2;}
	.st9{fill:#FF4A4A;}
	.st10{fill:#67CE41;}
	.st11{fill:#707078;}
	.st12{fill:#A83E0F;}
	.st13{fill:#232C68;}
	.st14{fill:#020202;}
	.st15{fill:#FFE6BD;}
	.st16{fill-rule:evenodd;clip-rule:evenodd;fill:#EB601A;}
	.st17{fill-rule:evenodd;clip-rule:evenodd;}
	.st18{fill:none;stroke:#EB601A;stroke-width:1.000000e-02;stroke-miterlimit:10;}
	.st19{fill-rule:evenodd;clip-rule:evenodd;fill:#F7B521;}
	.st20{fill:none;}
	.st21{fill-rule:evenodd;clip-rule:evenodd;fill:#E2E2E2;}
	.st22{fill-rule:evenodd;clip-rule:evenodd;fill:#67CE41;}
	.st23{fill-rule:evenodd;clip-rule:evenodd;fill:#231815;}
	.st24{opacity:0.2;}
	.st25{fill-rule:evenodd;clip-rule:evenodd;fill:#EBEBEB;}
	.st26{fill:#F4F4F4;}
	.st27{fill-rule:evenodd;clip-rule:evenodd;fill:url(#SVGID_1_);}
	.st28{fill:#F5DA89;}
	.st29{fill:#5264B4;}
	.st30{fill:#DE5C5C;}
</style>
<g>
	<g>
		<g>
			<g>
				<path class="st0" d="M21.6,4.4c-1.5-1.8-3.7-2.8-6.1-2.8C10,1.6,4.6,6.7,3.5,13c-0.6,3.3,0.1,6.5,2,8.7c1.5,1.8,3.7,2.8,6.1,2.8
					c5.5,0,10.8-5.1,11.9-11.3C24.1,9.8,23.4,6.6,21.6,4.4z M8.3,19.9c-1-1.8-1-4.8,0-7.7c1.6-4.4,4.9-7.6,7.7-7.6
					c0.2,0,0.4,0,0.6,0.1c0.9,0.2,1.6,0.7,2.2,1.6c1,1.8,1,4.8,0,7.7c-1.7,4.7-5.4,8.1-8.3,7.5C9.5,21.3,8.8,20.8,8.3,19.9z"/>
				<path class="st0" d="M33.3,17.7l-2.7,0.8l-0.1,0.2c0,0.2-0.1,0.3-0.1,0.4l-1.5-2.5c0.8-0.5,1.5-0.9,1.9-1.4
					c0.6-0.6,0.9-1.2,1.1-2c0.2-0.9,0-1.7-0.6-2.3c-0.6-0.6-1.3-0.9-2.3-0.9c-1,0-1.9,0.3-2.7,0.9c-0.8,0.6-1.3,1.4-1.4,2.3
					c-0.1,0.8,0.1,1.7,0.7,2.8c-1,0.5-1.8,1.1-2.4,1.7c-0.7,0.7-1.1,1.4-1.2,2.3c-0.2,1.2,0.1,2.2,0.8,3c0.7,0.8,1.8,1.2,3.1,1.2
					c1.3,0,2.5-0.3,3.6-1l-1.1-1.8c-0.7,0.4-1.4,0.6-2.2,0.6c-0.6,0-1-0.2-1.3-0.6c-0.3-0.4-0.4-0.9-0.3-1.5
					c0.1-0.5,0.3-0.9,0.7-1.2c0.4-0.3,0.9-0.7,1.6-1l3.9,6.3l2.3-1.1l-1.1-1.8c0.7-0.8,1.2-1.8,1.4-3L33.3,17.7z M27.7,12.5
					c0.3-0.2,0.6-0.3,0.9-0.3c0.3,0,0.5,0.1,0.7,0.3c0.2,0.2,0.2,0.4,0.2,0.8c-0.1,0.4-0.2,0.7-0.5,1c-0.3,0.3-0.6,0.5-1.1,0.8
					l-0.1-0.2c-0.4-0.6-0.5-1.1-0.4-1.5C27.2,13,27.4,12.7,27.7,12.5z"/>
				<polygon class="st0" points="42.3,2.2 39.2,2.2 36.3,3.9 35.7,7.4 37.3,7.2 34.7,21.9 33.5,22.6 33.2,24.2 39.4,24.2 39.6,22.7 
					38.8,22 				"/>
				<polygon class="st0" points="52.5,2.5 47.5,2.5 40.6,13.3 45,24.2 50,24.2 45.6,13.4 				"/>
			</g>
		</g>
	</g>
	<g>
		<path class="st0" d="M54.9,11.2h2.8l-0.1,1.7h0.1c1.3-1.1,2.7-2.1,4.4-2.1c1.9,0,2.8,0.8,3.1,2.3c1.4-1.2,2.9-2.3,4.5-2.3
			c2.8,0,3.7,1.9,3.1,5.2l-1.5,8.1h-3.4l1.4-7.7c0.4-2-0.1-2.7-1.3-2.7c-0.7,0-1.7,0.5-2.8,1.5l-1.7,8.9h-3.4l1.4-7.7
			c0.4-2-0.1-2.7-1.3-2.7c-0.7,0-1.7,0.5-2.8,1.5l-1.7,8.9h-3.4L54.9,11.2z"/>
		<path class="st0" d="M74.8,20.6c0.5-2.8,3-4.2,8.4-4.8c0.2-1.3-0.2-2.2-1.8-2.2c-1.2,0-2.5,0.5-3.8,1.2l-0.8-2.2
			c1.7-0.9,3.7-1.7,5.7-1.7c3.3,0,4.6,2,3.9,5.7L85,24.1h-2.8l0-1.4h-0.1c-1.3,1-2.8,1.7-4.2,1.7C75.6,24.4,74.4,22.8,74.8,20.6z
			 M82.3,20.5l0.5-2.6c-3.2,0.4-4.5,1.3-4.7,2.4c-0.2,1,0.4,1.5,1.4,1.5C80.5,21.8,81.3,21.3,82.3,20.5z"/>
		<path class="st0" d="M90.9,11.2h2.8l-0.2,2.3h0.1c1.3-1.7,2.8-2.6,4.2-2.6c0.7,0,1.1,0.1,1.5,0.3l-1.2,2.9
			c-0.4-0.1-0.8-0.2-1.3-0.2c-1,0-2.4,0.7-3.5,2.5l-1.5,7.7h-3.4L90.9,11.2z"/>
		<path class="st0" d="M99.9,19.6l1.1-5.7h-1.8l0.5-2.5l2-0.2l1-3.5h2.8l-0.7,3.5h3.2l-0.5,2.7h-3.2l-1.1,5.7
			c-0.3,1.5,0.2,2.2,1.4,2.2c0.4,0,1-0.1,1.3-0.3l0.1,2.5c-0.7,0.2-1.7,0.5-2.8,0.5C100.2,24.4,99.4,22.5,99.9,19.6z"/>
		<path class="st0" d="M107.1,22.6l2-2.1c1,0.9,2,1.4,3.2,1.4c1.3,0,2-0.6,2.1-1.4c0.2-1-1.1-1.4-2.3-1.9c-1.5-0.6-3.2-1.6-2.8-3.8
			c0.4-2.3,2.6-4,5.6-4c1.9,0,3.2,0.8,4.1,1.6l-1.9,2.1c-0.8-0.6-1.6-1.1-2.6-1.1c-1.2,0-1.8,0.5-1.9,1.2c-0.2,0.9,1,1.3,2.3,1.8
			c1.6,0.6,3.3,1.5,2.9,3.9c-0.4,2.3-2.6,4.1-5.9,4.1C109.9,24.4,108.1,23.7,107.1,22.6z"/>
	</g>
</g>
</svg>
